<svg width="25" height="25" viewBox="0 0 25 25" fill="none" xmlns="http://www.w3.org/2000/svg">
<path d="M24 12.5C24.0019 14.0147 23.7037 15.5148 23.1225 16.9136C22.5413 18.3124 21.6886 19.5821 20.6138 20.6495C19.5478 21.7136 18.2825 22.5572 16.8903 23.1321C15.4981 23.707 14.0062 24.0019 12.5 24C6.14856 24 1.00001 18.8514 1.00001 12.5C0.99599 9.55127 2.12866 6.71444 4.16251 4.57938C5.23565 3.44698 6.52858 2.54546 7.96218 1.93C9.39577 1.31455 10.9399 0.998093 12.5 1.00001C14.0062 0.998059 15.4981 1.29296 16.8903 1.86786C18.2825 2.44276 19.5478 3.28639 20.6138 4.35053C21.6886 5.41786 22.5413 6.6876 23.1225 8.08639C23.7037 9.48518 24.0019 10.9853 24 12.5V12.5Z" stroke="white" stroke-width="2" stroke-linecap="round" stroke-linejoin="round"/>
<path d="M24 12.5C22.3221 12.5 17.6934 11.8675 13.5505 13.6862C9.04999 15.6625 5.79146 18.7278 4.37122 20.6345" stroke="white" stroke-width="2" stroke-linecap="round" stroke-linejoin="round"/>
<path d="M8.1875 1.83606C9.98725 3.49723 13.9145 7.72693 15.375 11.925C16.8355 16.1236 17.376 21.286 17.7095 22.7551" stroke="white" stroke-width="2" stroke-linecap="round" stroke-linejoin="round"/>
<path d="M1.86251 16.8775C2.87584 19.3304 4.70341 21.3592 7.03751 22.6223M1.08856 11.0625C3.26091 11.1936 9.01148 11.3115 12.6915 9.74001C16.3715 8.16853 19.538 5.27801 20.6242 4.36089L1.08856 11.0625Z" stroke="white" stroke-width="2" stroke-linecap="round" stroke-linejoin="round"/>
<path d="M12.5 24C14.0062 24.0019 15.4981 23.707 16.8903 23.1321C18.2825 22.5572 19.5478 21.7136 20.6138 20.6495M1.00001 12.5C0.99599 9.55127 2.12866 6.71444 4.16251 4.57938L1.00001 12.5ZM12.5 1.00001C10.9399 0.998092 9.39577 1.31455 7.96218 1.93C6.52858 2.54546 5.23565 3.44698 4.16251 4.57938L12.5 1.00001ZM17.1 1.95681C18.4096 2.52982 19.6012 3.34154 20.6138 4.35053C21.6886 5.41786 22.5413 6.6876 23.1225 8.08639C23.7037 9.48517 24.0019 10.9853 24 12.5C24 13.9162 23.7441 15.2721 23.2755 16.525L17.1 1.95681Z" stroke="white" stroke-width="2" stroke-linecap="round" stroke-linejoin="round"/>
</svg>
