<svg width="26" height="22" viewBox="0 0 26 22" fill="none" xmlns="http://www.w3.org/2000/svg">
<path d="M24.1429 0H1.85714C1.3646 0 0.892226 0.231785 0.543944 0.644365C0.195663 1.05694 0 1.61652 0 2.2V19.8C0 20.3835 0.195663 20.9431 0.543944 21.3556C0.892226 21.7682 1.3646 22 1.85714 22H24.1429C24.6354 22 25.1078 21.7682 25.4561 21.3556C25.8043 20.9431 26 20.3835 26 19.8V2.2C26 1.61652 25.8043 1.05694 25.4561 0.644365C25.1078 0.231785 24.6354 0 24.1429 0ZM22.1 2.2L13 9.658L3.9 2.2H22.1ZM1.85714 19.8V3.201L12.4707 11.902C12.6262 12.0297 12.8108 12.0982 13 12.0982C13.1892 12.0982 13.3738 12.0297 13.5293 11.902L24.1429 3.201V19.8H1.85714Z" fill="white"/>
</svg>
