<svg width="25" height="25" viewBox="0 0 25 25" fill="none" xmlns="http://www.w3.org/2000/svg">
<path d="M12.5 24C18.8514 24 24 18.8514 24 12.5C24 6.14855 18.8514 1 12.5 1C6.14855 1 1 6.14855 1 12.5C1 18.8514 6.14855 24 12.5 24Z" stroke="white" stroke-width="2" stroke-linecap="round" stroke-linejoin="round"/>
<path d="M15.1829 20.55V18.4075C15.2117 18.051 15.1622 17.6946 15.038 17.3576C14.913 17.0204 14.7169 16.7141 14.463 16.4595C16.87 16.1984 19.4 15.3095 19.4 11.2339C19.3978 10.1863 18.9849 9.18131 18.25 8.43475C18.5998 7.52408 18.575 6.512 18.181 5.61955C18.181 5.61955 17.2759 5.3585 15.1829 6.7247C13.4244 6.26109 11.5756 6.26109 9.81705 6.7247C7.72404 5.3585 6.819 5.6207 6.819 5.6207C6.42567 6.51248 6.40086 7.52361 6.75 8.4336C6.00998 9.18569 5.59671 10.1994 5.6 11.2546C5.6 15.3014 8.13 16.1892 10.5369 16.4802C10.2858 16.7326 10.0914 17.0356 9.96655 17.3691C9.8426 17.7001 9.79161 18.0539 9.81705 18.4064V20.55" stroke="white" stroke-width="2" stroke-linecap="round" stroke-linejoin="round"/>
<path d="M9.817 19.0573C7.517 19.783 5.59995 19.0573 4.44995 16.8171" stroke="white" stroke-width="2" stroke-linecap="round" stroke-linejoin="round"/>
</svg>
